<?xml version="1.0" encoding="utf-8"?><svg viewBox="0 0 640 512" xmlns="http://www.w3.org/2000/svg" xmlns:xlink="http://www.w3.org/1999/xlink"><style>:root>svg{display:none}:root>svg:target{display:block}</style><svg viewBox="0 0 512 512" id="arrows-rotate" xmlns="http://www.w3.org/2000/svg"><path d="M105.1 202.6c7.7-21.8 20.2-42.3 37.8-59.8 62.5-62.5 163.8-62.5 226.3 0l17.1 17.2H336c-17.7 0-32 14.3-32 32s14.3 32 32 32h127.9c17.7 0 32-14.3 32-32V64c0-17.7-14.3-32-32-32s-32 14.3-32 32v51.2l-17.5-17.6c-87.5-87.5-229.3-87.5-316.8 0-24.4 24.4-42 53.1-52.8 83.8-5.9 16.7 2.9 34.9 19.5 40.8s34.9-2.9 40.8-19.5zM39 289.3c-5 1.5-9.8 4.2-13.7 8.2-4 4-6.7 8.8-8.1 14-.3 1.2-.6 2.5-.8 3.8-.3 1.7-.4 3.4-.4 5.1V448c0 17.7 14.3 32 32 32s32-14.3 32-32v-51.1l17.6 17.5c87.5 87.4 229.3 87.4 316.7 0 24.4-24.4 42.1-53.1 52.9-83.7 5.9-16.7-2.9-34.9-19.5-40.8s-34.9 2.9-40.8 19.5c-7.7 21.8-20.2 42.3-37.8 59.8-62.5 62.5-163.8 62.5-226.3 0l-.1-.1-17.1-17.1H176c17.7 0 32-14.3 32-32s-14.3-32-32-32H48.4c-1.6 0-3.2.1-4.8.3s-3.1.5-4.6 1z"/></svg><svg viewBox="0 0 30 30" id="bars" xmlns="http://www.w3.org/2000/svg"><path stroke="rgba(255, 255, 255, 0.5)" stroke-linecap="round" stroke-miterlimit="10" stroke-width="2" d="M4 7h22M4 15h22M4 23h22"/></svg><svg viewBox="0 0 384 512" id="bolt-lightning" xmlns="http://www.w3.org/2000/svg"><path d="M0 256 28.5 28c2-16 15.6-28 31.8-28h168.6c15 0 27.1 12.1 27.1 27.1 0 3.2-.6 6.5-1.7 9.5L208 160h139.3c20.2 0 36.7 16.4 36.7 36.7 0 7.4-2.2 14.6-6.4 20.7l-192.2 281c-5.9 8.6-15.6 13.7-25.9 13.7h-2.9c-15.7 0-28.5-12.8-28.5-28.5 0-2.3.3-4.6.9-6.9L176 288H32c-17.7 0-32-14.3-32-32z"/></svg><svg viewBox="0 0 256 512" id="caret-right" xmlns="http://www.w3.org/2000/svg"><path d="M246.6 278.6c12.5-12.5 12.5-32.8 0-45.3l-128-128c-9.2-9.2-22.9-11.9-34.9-6.9S63.9 115 63.9 128v256c0 12.9 7.8 24.6 19.8 29.6s25.7 2.2 34.9-6.9l128-128z"/></svg><svg viewBox="0 0 512 512" id="circle-xmark" xmlns="http://www.w3.org/2000/svg"><path d="M256 48a208 208 0 1 1 0 416 208 208 0 1 1 0-416zm0 464a256 256 0 1 0 0-512 256 256 0 1 0 0 512zm-81-337c-9.4 9.4-9.4 24.6 0 33.9l47 47-47 47c-9.4 9.4-9.4 24.6 0 33.9s24.6 9.4 33.9 0l47-47 47 47c9.4 9.4 24.6 9.4 33.9 0s9.4-24.6 0-33.9l-47-47 47-47c9.4-9.4 9.4-24.6 0-33.9s-24.6-9.4-33.9 0l-47 47-47-47c-9.4-9.4-24.6-9.4-33.9 0z"/></svg><svg viewBox="0 0 512 512" id="clock" xmlns="http://www.w3.org/2000/svg"><path d="M464 256a208 208 0 1 1-416 0 208 208 0 1 1 416 0zM0 256a256 256 0 1 0 512 0 256 256 0 1 0-512 0zm232-136v136c0 8 4 15.5 10.7 20l96 64c11 7.4 25.9 4.4 33.3-6.7s4.4-25.9-6.7-33.3L280 243.2V120c0-13.3-10.7-24-24-24s-24 10.7-24 24z"/></svg><svg viewBox="0 0 640 512" id="cloud-arrow-down" xmlns="http://www.w3.org/2000/svg"><path d="M144 480C64.5 480 0 415.5 0 336c0-62.8 40.2-116.2 96.2-135.9-.1-2.7-.2-5.4-.2-8.1 0-88.4 71.6-160 160-160 59.3 0 111 32.2 138.7 80.2A95.51 95.51 0 0 1 448 96c53 0 96 43 96 96 0 12.2-2.3 23.8-6.4 34.6C596 238.4 640 290.1 640 352c0 70.7-57.3 128-128 128H144zm79-167 80 80c9.4 9.4 24.6 9.4 33.9 0l80-80c9.4-9.4 9.4-24.6 0-33.9s-24.6-9.4-33.9 0l-39 39V184c0-13.3-10.7-24-24-24s-24 10.7-24 24v134.1l-39-39c-9.4-9.4-24.6-9.4-33.9 0s-9.4 24.6 0 33.9z"/></svg><svg viewBox="0 0 576 512" id="desktop" xmlns="http://www.w3.org/2000/svg"><path d="M64 0C28.7 0 0 28.7 0 64v288c0 35.3 28.7 64 64 64h176l-10.7 32H160c-17.7 0-32 14.3-32 32s14.3 32 32 32h256c17.7 0 32-14.3 32-32s-14.3-32-32-32h-69.3L336 416h176c35.3 0 64-28.7 64-64V64c0-35.3-28.7-64-64-64H64zm448 64v224H64V64h448z"/></svg><svg viewBox="0 0 448 512" id="floppy-disk" xmlns="http://www.w3.org/2000/svg"><path d="M48 96v320c0 8.8 7.2 16 16 16h320c8.8 0 16-7.2 16-16V170.5c0-4.2-1.7-8.3-4.7-11.3l33.9-33.9c12 12 18.7 28.3 18.7 45.3V416c0 35.3-28.7 64-64 64H64c-35.3 0-64-28.7-64-64V96c0-35.3 28.7-64 64-64h245.5c17 0 33.3 6.7 45.3 18.7l74.5 74.5-33.9 33.9-74.6-74.4-.8-.8V184c0 13.3-10.7 24-24 24H104c-13.3 0-24-10.7-24-24V80H64c-8.8 0-16 7.2-16 16zm80-16v80h144V80H128zm32 240a64 64 0 1 1 128 0 64 64 0 1 1-128 0z"/></svg><svg viewBox="0 0 512 512" id="folder" xmlns="http://www.w3.org/2000/svg"><path d="M0 96c0-35.3 28.7-64 64-64h132.1c19.1 0 37.4 7.6 50.9 21.1L289.9 96H448c35.3 0 64 28.7 64 64v256c0 35.3-28.7 64-64 64H64c-35.3 0-64-28.7-64-64V96zm64-16c-8.8 0-16 7.2-16 16v320c0 8.8 7.2 16 16 16h384c8.8 0 16-7.2 16-16V160c0-8.8-7.2-16-16-16H286.6c-10.6 0-20.8-4.2-28.3-11.7L213.1 87c-4.5-4.5-10.6-7-17-7H64z"/></svg><svg viewBox="0 0 512 512" id="gear" xmlns="http://www.w3.org/2000/svg"><path d="M495.9 166.6c3.2 8.7.5 18.4-6.4 24.6l-43.3 39.4c1.1 8.3 1.7 16.8 1.7 25.4s-.6 17.1-1.7 25.4l43.3 39.4c6.9 6.2 9.6 15.9 6.4 24.6-4.4 11.9-9.7 23.3-15.8 34.3l-4.7 8.1c-6.6 11-14 21.4-22.1 31.2-5.9 7.2-15.7 9.6-24.5 6.8l-55.7-17.7c-13.4 10.3-28.2 18.9-44 25.4l-12.5 57.1c-2 9.1-9 16.3-18.2 17.8-13.8 2.3-28 3.5-42.5 3.5s-28.7-1.2-42.5-3.5c-9.2-1.5-16.2-8.7-18.2-17.8l-12.5-57.1c-15.8-6.5-30.6-15.1-44-25.4l-55.6 17.8c-8.8 2.8-18.6.3-24.5-6.8-8.1-9.8-15.5-20.2-22.1-31.2l-4.7-8.1c-6.1-11-11.4-22.4-15.8-34.3-3.2-8.7-.5-18.4 6.4-24.6l43.3-39.4c-1.1-8.4-1.7-16.9-1.7-25.5s.6-17.1 1.7-25.4l-43.3-39.4c-6.9-6.2-9.6-15.9-6.4-24.6 4.4-11.9 9.7-23.3 15.8-34.3l4.7-8.1c6.6-11 14-21.4 22.1-31.2 5.9-7.2 15.7-9.6 24.5-6.8l55.7 17.7c13.4-10.3 28.2-18.9 44-25.4l12.5-57.1c2-9.1 9-16.3 18.2-17.8C227.3 1.2 241.5 0 256 0s28.7 1.2 42.5 3.5c9.2 1.5 16.2 8.7 18.2 17.8l12.5 57.1c15.8 6.5 30.6 15.1 44 25.4l55.7-17.7c8.8-2.8 18.6-.3 24.5 6.8 8.1 9.8 15.5 20.2 22.1 31.2l4.7 8.1c6.1 11 11.4 22.4 15.8 34.3zM256 336a80 80 0 1 0 0-160 80 80 0 1 0 0 160z"/></svg><svg viewBox="0 0 512 512" id="globe" xmlns="http://www.w3.org/2000/svg"><path d="M352 256c0 22.2-1.2 43.6-3.3 64H163.3c-2.2-20.4-3.3-41.8-3.3-64s1.2-43.6 3.3-64h185.4c2.2 20.4 3.3 41.8 3.3 64zm28.8-64h123.1c5.3 20.5 8.1 41.9 8.1 64s-2.8 43.5-8.1 64H380.8c2.1-20.6 3.2-42 3.2-64s-1.1-43.4-3.2-64zm112.6-32H376.7c-10-63.9-29.8-117.4-55.3-151.6 78.3 20.7 142 77.5 171.9 151.6zm-149.1 0H167.7c6.1-36.4 15.5-68.6 27-94.7 10.5-23.6 22.2-40.7 33.5-51.5C239.4 3.2 248.7 0 256 0s16.6 3.2 27.8 13.8c11.3 10.8 23 27.9 33.5 51.5 11.6 26 20.9 58.2 27 94.7zm-209 0H18.6c30-74.1 93.6-130.9 172-151.6-25.5 34.2-45.3 87.7-55.3 151.6zM8.1 192h123.1c-2.1 20.6-3.2 42-3.2 64s1.1 43.4 3.2 64H8.1C2.8 299.5 0 278.1 0 256s2.8-43.5 8.1-64zm186.6 254.6c-11.6-26-20.9-58.2-27-94.6h176.6c-6.1 36.4-15.5 68.6-27 94.6-10.5 23.6-22.2 40.7-33.5 51.5-11.2 10.7-20.5 13.9-27.8 13.9s-16.6-3.2-27.8-13.8c-11.3-10.8-23-27.9-33.5-51.5zM135.3 352c10 63.9 29.8 117.4 55.3 151.6-78.4-20.7-142-77.5-172-151.6h116.7zm358.1 0c-30 74.1-93.6 130.9-171.9 151.6 25.5-34.2 45.2-87.7 55.3-151.6h116.6z"/></svg><svg viewBox="0 0 448 512" id="lock" xmlns="http://www.w3.org/2000/svg"><path d="M144 144v48h160v-48c0-44.2-35.8-80-80-80s-80 35.8-80 80zm-64 48v-48C80 64.5 144.5 0 224 0s144 64.5 144 144v48h16c35.3 0 64 28.7 64 64v192c0 35.3-28.7 64-64 64H64c-35.3 0-64-28.7-64-64V256c0-35.3 28.7-64 64-64h16z"/></svg><svg viewBox="0 0 576 512" id="lock-open" xmlns="http://www.w3.org/2000/svg"><path d="M352 144c0-44.2 35.8-80 80-80s80 35.8 80 80v48c0 17.7 14.3 32 32 32s32-14.3 32-32v-48C576 64.5 511.5 0 432 0S288 64.5 288 144v48H64c-35.3 0-64 28.7-64 64v192c0 35.3 28.7 64 64 64h320c35.3 0 64-28.7 64-64V256c0-35.3-28.7-64-64-64h-32v-48z"/></svg><svg viewBox="0 0 448 512" id="plus" xmlns="http://www.w3.org/2000/svg"><path d="M256 80c0-17.7-14.3-32-32-32s-32 14.3-32 32v144H48c-17.7 0-32 14.3-32 32s14.3 32 32 32h144v144c0 17.7 14.3 32 32 32s32-14.3 32-32V288h144c17.7 0 32-14.3 32-32s-14.3-32-32-32H256V80z"/></svg><svg viewBox="0 0 512 512" id="power-off" xmlns="http://www.w3.org/2000/svg"><!--! Font Awesome Pro 6.4.0 by @fontawesome - https://fontawesome.com License - https://fontawesome.com/license (Commercial License) Copyright 2023 Fonticons, Inc.--><path d="M288 32c0-17.7-14.3-32-32-32s-32 14.3-32 32v224c0 17.7 14.3 32 32 32s32-14.3 32-32V32zm-144.5 88.6c13.6-11.3 15.4-31.5 4.1-45.1s-31.5-15.4-45.1-4.1C49.7 115.4 16 181.8 16 256c0 132.5 107.5 240 240 240s240-107.5 240-240c0-74.2-33.8-140.6-86.6-184.6-13.6-11.3-33.8-9.4-45.1 4.1s-9.4 33.8 4.1 45.1c38.9 32.3 63.5 81 63.5 135.4 0 97.2-78.8 176-176 176s-176-78.8-176-176c0-54.4 24.7-103.1 63.5-135.4z"/></svg><svg fill="none" viewBox="0 0 32 16" id="signal0" xmlns="http://www.w3.org/2000/svg"><rect x="26.405" y=".5" width="5.095" height="15" rx="2.548" fill="#F88F8F" stroke="#343A40"/><rect x="17.77" y="3.25" width="5.095" height="12.25" rx="2.548" fill="#F88F8F" stroke="#343A40"/><rect x="9" y="6" width="5" height="9.5" rx="2.5" fill="#F88F8F" stroke="#343A40"/><rect x=".5" y="8.5" width="5.095" height="7" rx="2.548" fill="#F88F8F" stroke="#343A40"/></svg><svg fill="none" viewBox="0 0 32 16" id="signal1" xmlns="http://www.w3.org/2000/svg"><rect x="26.405" y=".5" width="5.095" height="15" rx="2.548" fill="#fff" stroke="#343A40"/><rect x="17.77" y="3.25" width="5.095" height="12.25" rx="2.548" fill="#fff" stroke="#343A40"/><rect x="9" y="6" width="5" height="9.5" rx="2.5" fill="#fff" stroke="#343A40"/><rect x=".5" y="8.5" width="5.095" height="7" rx="2.548" fill="#05DBBA" stroke="#343A40"/></svg><svg fill="none" viewBox="0 0 32 16" id="signal2" xmlns="http://www.w3.org/2000/svg"><rect x="26.405" y=".5" width="5.095" height="15" rx="2.548" fill="#fff" stroke="#343A40"/><rect x="17.77" y="3.25" width="5.095" height="12.25" rx="2.548" fill="#fff" stroke="#343A40"/><rect x="9" y="6" width="5" height="9.5" rx="2.5" fill="#05DBBA" stroke="#343A40"/><rect x=".5" y="8.5" width="5.095" height="7" rx="2.548" fill="#05DBBA" stroke="#343A40"/></svg><svg fill="none" viewBox="0 0 32 16" id="signal3" xmlns="http://www.w3.org/2000/svg"><rect x="26.405" y=".5" width="5.095" height="15" rx="2.548" fill="#fff" stroke="#343A40"/><rect x="17.77" y="3.25" width="5.095" height="12.25" rx="2.548" fill="#05DBBA" stroke="#343A40"/><rect x="9" y="6" width="5" height="9.5" rx="2.5" fill="#05DBBA" stroke="#343A40"/><rect x=".5" y="8.5" width="5.095" height="7" rx="2.548" fill="#05DBBA" stroke="#343A40"/></svg><svg fill="none" viewBox="0 0 32 16" id="signal4" xmlns="http://www.w3.org/2000/svg"><rect x="26.405" y=".5" width="5.095" height="15" rx="2.548" fill="#05DBBA" stroke="#343A40"/><rect x="17.77" y="3.25" width="5.095" height="12.25" rx="2.548" fill="#05DBBA" stroke="#343A40"/><rect x="9" y="6" width="5" height="9.5" rx="2.5" fill="#05DBBA" stroke="#343A40"/><rect x=".5" y="8.5" width="5.095" height="7" rx="2.548" fill="#05DBBA" stroke="#343A40"/></svg><svg viewBox="0 0 512 512" id="spinner" xmlns="http://www.w3.org/2000/svg"><path d="M304 48a48 48 0 1 0-96 0 48 48 0 1 0 96 0zm0 416a48 48 0 1 0-96 0 48 48 0 1 0 96 0zM48 304a48 48 0 1 0 0-96 48 48 0 1 0 0 96zm464-48a48 48 0 1 0-96 0 48 48 0 1 0 96 0zM142.9 437A48 48 0 1 0 75 369.1a48 48 0 1 0 67.9 67.9zm0-294.2A48 48 0 1 0 75 75a48 48 0 1 0 67.9 67.9zM369.1 437a48 48 0 1 0 67.9-67.9 48 48 0 1 0-67.9 67.9z"/></svg></svg>